<svg width="236" height="108" viewBox="0 0 236 108" fill="none" xmlns="http://www.w3.org/2000/svg">
<path d="M26.1766 40.7C28.8966 40.7 31.4966 40.24 33.9766 39.32C36.4966 38.36 38.8966 36.82 41.1766 34.7L44.1766 38.3C41.8966 40.42 39.1366 42.1 35.8966 43.34C32.6566 44.58 29.2166 45.2 25.5766 45.2C21.8166 45.2 18.4166 44.72 15.3766 43.76C12.3766 42.8 9.79656 41.38 7.63656 39.5C5.51656 37.62 3.87656 35.3 2.71656 32.54C1.55656 29.78 0.976563 26.6 0.976563 23C0.976563 19.4 1.53656 16.22 2.65656 13.46C3.81656 10.7 5.43656 8.38 7.51656 6.5C9.63656 4.62 12.1766 3.2 15.1366 2.24C18.0966 1.28 21.3766 0.799998 24.9766 0.799998C28.6166 0.799998 32.0566 1.42 35.2966 2.66C38.5366 3.9 41.2966 5.58 43.5766 7.7L40.5766 11.3C38.2966 9.18 35.8966 7.66 33.3766 6.74C30.8966 5.78 28.2966 5.3 25.5766 5.3C23.4166 5.3 21.3966 5.66 19.5166 6.38C17.6366 7.06 16.0166 8.12 14.6566 9.56C13.2966 11 12.2166 12.84 11.4166 15.08C10.6566 17.28 10.2766 19.92 10.2766 23C10.2766 26.08 10.6566 28.74 11.4166 30.98C12.2166 33.18 13.3166 35 14.7166 36.44C16.1566 37.88 17.8366 38.96 19.7566 39.68C21.7166 40.36 23.8566 40.7 26.1766 40.7ZM65.207 41.3C66.487 41.3 67.687 41.06 68.807 40.58C69.927 40.1 70.907 39.36 71.747 38.36C72.587 37.32 73.247 35.98 73.727 34.34C74.247 32.7 74.507 30.72 74.507 28.4C74.507 26.08 74.247 24.1 73.727 22.46C73.247 20.82 72.587 19.5 71.747 18.5C70.907 17.46 69.927 16.7 68.807 16.22C67.687 15.74 66.487 15.5 65.207 15.5C63.927 15.5 62.727 15.74 61.607 16.22C60.487 16.7 59.507 17.46 58.667 18.5C57.827 19.5 57.147 20.82 56.627 22.46C56.147 24.1 55.907 26.08 55.907 28.4C55.907 30.72 56.147 32.7 56.627 34.34C57.147 35.98 57.827 37.32 58.667 38.36C59.507 39.36 60.487 40.1 61.607 40.58C62.727 41.06 63.927 41.3 65.207 41.3ZM65.207 11.6C67.887 11.6 70.347 11.98 72.587 12.74C74.867 13.46 76.807 14.54 78.407 15.98C80.007 17.38 81.247 19.14 82.127 21.26C83.047 23.34 83.507 25.72 83.507 28.4C83.507 31.12 83.047 33.52 82.127 35.6C81.247 37.68 80.007 39.44 78.407 40.88C76.807 42.28 74.867 43.34 72.587 44.06C70.347 44.82 67.887 45.2 65.207 45.2C62.487 45.2 60.007 44.82 57.767 44.06C55.527 43.34 53.607 42.28 52.007 40.88C50.407 39.44 49.147 37.68 48.227 35.6C47.347 33.52 46.907 31.12 46.907 28.4C46.907 25.72 47.347 23.34 48.227 21.26C49.147 19.14 50.407 17.38 52.007 15.98C53.607 14.54 55.527 13.46 57.767 12.74C60.007 11.98 62.487 11.6 65.207 11.6ZM91.9469 13.4C91.9469 9.48 93.1669 6.4 95.6069 4.16C98.0469 1.92 101.527 0.799998 106.047 0.799998C107.567 0.799998 109.087 0.999998 110.607 1.4C112.167 1.8 113.547 2.3 114.747 2.9L112.947 6.8C112.187 6.36 111.247 5.96 110.127 5.6C109.007 5.2 107.847 5 106.647 5C105.807 5 105.007 5.16 104.247 5.48C103.487 5.8 102.807 6.3 102.207 6.98C101.647 7.62 101.187 8.48 100.827 9.56C100.507 10.64 100.347 11.92 100.347 13.4V14H109.647V18.2H100.347V44H91.9469V18.2H86.2469V14H91.9469V13.4ZM118.959 13.4C118.959 9.48 120.179 6.4 122.619 4.16C125.059 1.92 128.539 0.799998 133.059 0.799998C134.579 0.799998 136.099 0.999998 137.619 1.4C139.179 1.8 140.559 2.3 141.759 2.9L139.959 6.8C139.199 6.36 138.259 5.96 137.139 5.6C136.019 5.2 134.859 5 133.659 5C132.819 5 132.019 5.16 131.259 5.48C130.499 5.8 129.819 6.3 129.219 6.98C128.659 7.62 128.199 8.48 127.839 9.56C127.519 10.64 127.359 11.92 127.359 13.4V14H136.659V18.2H127.359V44H118.959V18.2H113.259V14H118.959V13.4ZM159.454 41C161.414 41 163.234 40.66 164.914 39.98C166.634 39.3 168.314 38.34 169.954 37.1L172.354 40.7C171.594 41.38 170.694 42 169.654 42.56C168.654 43.12 167.554 43.6 166.354 44C165.194 44.36 163.974 44.64 162.694 44.84C161.414 45.08 160.134 45.2 158.854 45.2C156.014 45.2 153.414 44.82 151.054 44.06C148.734 43.34 146.754 42.28 145.114 40.88C143.474 39.44 142.194 37.68 141.274 35.6C140.394 33.52 139.954 31.12 139.954 28.4C139.954 25.72 140.374 23.34 141.214 21.26C142.094 19.14 143.294 17.38 144.814 15.98C146.374 14.54 148.214 13.46 150.334 12.74C152.454 11.98 154.794 11.6 157.354 11.6C159.754 11.6 162.014 11.96 164.134 12.68C166.254 13.4 168.094 14.46 169.654 15.86C171.214 17.22 172.454 18.88 173.374 20.84C174.294 22.8 174.754 25.02 174.754 27.5V31.7H149.134C149.614 35.02 150.754 37.4 152.554 38.84C154.394 40.28 156.694 41 159.454 41ZM157.354 15.5C156.194 15.5 155.114 15.72 154.114 16.16C153.114 16.6 152.234 17.3 151.474 18.26C150.754 19.22 150.154 20.46 149.674 21.98C149.234 23.5 148.994 25.34 148.954 27.5H165.754C165.754 25.42 165.514 23.62 165.034 22.1C164.554 20.58 163.914 19.34 163.114 18.38C162.354 17.38 161.454 16.66 160.414 16.22C159.414 15.74 158.394 15.5 157.354 15.5ZM199.649 41C201.609 41 203.429 40.66 205.109 39.98C206.829 39.3 208.509 38.34 210.149 37.1L212.549 40.7C211.789 41.38 210.889 42 209.849 42.56C208.849 43.12 207.749 43.6 206.549 44C205.389 44.36 204.169 44.64 202.889 44.84C201.609 45.08 200.329 45.2 199.049 45.2C196.209 45.2 193.609 44.82 191.249 44.06C188.929 43.34 186.949 42.28 185.309 40.88C183.669 39.44 182.389 37.68 181.469 35.6C180.589 33.52 180.149 31.12 180.149 28.4C180.149 25.72 180.569 23.34 181.409 21.26C182.289 19.14 183.489 17.38 185.009 15.98C186.569 14.54 188.409 13.46 190.529 12.74C192.649 11.98 194.989 11.6 197.549 11.6C199.949 11.6 202.209 11.96 204.329 12.68C206.449 13.4 208.289 14.46 209.849 15.86C211.409 17.22 212.649 18.88 213.569 20.84C214.489 22.8 214.949 25.02 214.949 27.5V31.7H189.329C189.809 35.02 190.949 37.4 192.749 38.84C194.589 40.28 196.889 41 199.649 41ZM197.549 15.5C196.389 15.5 195.309 15.72 194.309 16.16C193.309 16.6 192.429 17.3 191.669 18.26C190.949 19.22 190.349 20.46 189.869 21.98C189.429 23.5 189.189 25.34 189.149 27.5H205.949C205.949 25.42 205.709 23.62 205.229 22.1C204.749 20.58 204.109 19.34 203.309 18.38C202.549 17.38 201.649 16.66 200.609 16.22C199.609 15.74 198.589 15.5 197.549 15.5ZM29.1766 84.7L45.0766 106H35.1766L21.3766 87.4H10.8766V106H2.17656V64H10.8766V82.9H20.7766L34.5766 64H44.1766L29.1766 84.7ZM49.8719 74.8H58.2719V93.7C58.2719 96.58 58.9919 98.66 60.4319 99.94C61.8719 101.18 63.9519 101.8 66.6719 101.8H74.4719V74.8H82.8719V106H66.6719C60.9519 106 56.7119 104.98 53.9519 102.94C51.2319 100.86 49.8719 97.78 49.8719 93.7V74.8ZM99.6977 106H91.2977V64H99.6977V106ZM110.814 79H105.114V74.8H110.814V65.2H119.214V74.8H128.514V79H119.214V94.6C119.214 96.12 119.374 97.42 119.694 98.5C120.054 99.54 120.514 100.4 121.074 101.08C121.674 101.72 122.354 102.2 123.114 102.52C123.874 102.84 124.674 103 125.514 103C126.714 103 127.874 102.82 128.994 102.46C130.114 102.06 131.054 101.64 131.814 101.2L133.614 105.1C132.414 105.7 131.034 106.2 129.474 106.6C127.954 107 126.434 107.2 124.914 107.2C120.394 107.2 116.914 106.08 114.474 103.84C112.034 101.6 110.814 98.52 110.814 94.6V79ZM136.591 74.8H144.991V93.7C144.991 96.58 145.711 98.66 147.151 99.94C148.591 101.18 150.671 101.8 153.391 101.8H161.191V74.8H169.591V106H153.391C147.671 106 143.431 104.98 140.671 102.94C137.951 100.86 136.591 97.78 136.591 93.7V74.8ZM201.716 79H194.516C191.796 79 189.716 79.74 188.276 81.22C186.836 82.66 186.116 84.82 186.116 87.7V106H177.716V87.7C177.716 83.62 178.996 80.46 181.556 78.22C184.156 75.94 187.876 74.8 192.716 74.8H201.716V79ZM211.577 96.1C211.577 99.9 213.877 101.8 218.477 101.8H226.877V90.4H218.477C213.877 90.4 211.577 92.3 211.577 96.1ZM226.877 86.2C226.877 83.32 226.117 81.2 224.597 79.84C223.117 78.48 221.177 77.8 218.777 77.8C216.977 77.8 215.217 78.08 213.497 78.64C211.777 79.16 210.237 79.88 208.877 80.8L206.777 77.2C207.657 76.6 208.617 76.08 209.657 75.64C210.737 75.2 211.837 74.84 212.957 74.56C214.077 74.24 215.177 74 216.257 73.84C217.377 73.68 218.417 73.6 219.377 73.6C221.937 73.6 224.197 73.9 226.157 74.5C228.117 75.1 229.777 75.96 231.137 77.08C232.497 78.2 233.517 79.54 234.197 81.1C234.917 82.62 235.277 84.32 235.277 86.2V106H218.477C213.037 106 209.017 105.18 206.417 103.54C203.857 101.9 202.577 99.42 202.577 96.1C202.577 92.78 203.857 90.3 206.417 88.66C209.017 87.02 213.037 86.2 218.477 86.2H226.877Z" fill="#585858"/>
</svg>
