<svg width="351" height="108" viewBox="0 0 351 108" fill="none" xmlns="http://www.w3.org/2000/svg">
<path d="M137.177 40.7C139.897 40.7 142.497 40.24 144.977 39.32C147.497 38.36 149.897 36.82 152.177 34.7L155.177 38.3C152.897 40.42 150.137 42.1 146.897 43.34C143.657 44.58 140.217 45.2 136.577 45.2C132.817 45.2 129.417 44.72 126.377 43.76C123.377 42.8 120.797 41.38 118.637 39.5C116.517 37.62 114.877 35.3 113.717 32.54C112.557 29.78 111.977 26.6 111.977 23C111.977 19.4 112.537 16.22 113.657 13.46C114.817 10.7 116.437 8.38 118.517 6.5C120.637 4.62 123.177 3.2 126.137 2.24C129.097 1.28 132.377 0.799998 135.977 0.799998C139.617 0.799998 143.057 1.42 146.297 2.66C149.537 3.9 152.297 5.58 154.577 7.7L151.577 11.3C149.297 9.18 146.897 7.66 144.377 6.74C141.897 5.78 139.297 5.3 136.577 5.3C134.417 5.3 132.397 5.66 130.517 6.38C128.637 7.06 127.017 8.12 125.657 9.56C124.297 11 123.217 12.84 122.417 15.08C121.657 17.28 121.277 19.92 121.277 23C121.277 26.08 121.657 28.74 122.417 30.98C123.217 33.18 124.317 35 125.717 36.44C127.157 37.88 128.837 38.96 130.757 39.68C132.717 40.36 134.857 40.7 137.177 40.7ZM176.207 41.3C177.487 41.3 178.687 41.06 179.807 40.58C180.927 40.1 181.907 39.36 182.747 38.36C183.587 37.32 184.247 35.98 184.727 34.34C185.247 32.7 185.507 30.72 185.507 28.4C185.507 26.08 185.247 24.1 184.727 22.46C184.247 20.82 183.587 19.5 182.747 18.5C181.907 17.46 180.927 16.7 179.807 16.22C178.687 15.74 177.487 15.5 176.207 15.5C174.927 15.5 173.727 15.74 172.607 16.22C171.487 16.7 170.507 17.46 169.667 18.5C168.827 19.5 168.147 20.82 167.627 22.46C167.147 24.1 166.907 26.08 166.907 28.4C166.907 30.72 167.147 32.7 167.627 34.34C168.147 35.98 168.827 37.32 169.667 38.36C170.507 39.36 171.487 40.1 172.607 40.58C173.727 41.06 174.927 41.3 176.207 41.3ZM176.207 11.6C178.887 11.6 181.347 11.98 183.587 12.74C185.867 13.46 187.807 14.54 189.407 15.98C191.007 17.38 192.247 19.14 193.127 21.26C194.047 23.34 194.507 25.72 194.507 28.4C194.507 31.12 194.047 33.52 193.127 35.6C192.247 37.68 191.007 39.44 189.407 40.88C187.807 42.28 185.867 43.34 183.587 44.06C181.347 44.82 178.887 45.2 176.207 45.2C173.487 45.2 171.007 44.82 168.767 44.06C166.527 43.34 164.607 42.28 163.007 40.88C161.407 39.44 160.147 37.68 159.227 35.6C158.347 33.52 157.907 31.12 157.907 28.4C157.907 25.72 158.347 23.34 159.227 21.26C160.147 19.14 161.407 17.38 163.007 15.98C164.607 14.54 166.527 13.46 168.767 12.74C171.007 11.98 173.487 11.6 176.207 11.6ZM202.947 13.4C202.947 9.48 204.167 6.4 206.607 4.16C209.047 1.92 212.527 0.799998 217.047 0.799998C218.567 0.799998 220.087 0.999998 221.607 1.4C223.167 1.8 224.547 2.3 225.747 2.9L223.947 6.8C223.187 6.36 222.247 5.96 221.127 5.6C220.007 5.2 218.847 5 217.647 5C216.807 5 216.007 5.16 215.247 5.48C214.487 5.8 213.807 6.3 213.207 6.98C212.647 7.62 212.187 8.48 211.827 9.56C211.507 10.64 211.347 11.92 211.347 13.4V14H220.647V18.2H211.347V44H202.947V18.2H197.247V14H202.947V13.4ZM229.959 13.4C229.959 9.48 231.179 6.4 233.619 4.16C236.059 1.92 239.539 0.799998 244.059 0.799998C245.579 0.799998 247.099 0.999998 248.619 1.4C250.179 1.8 251.559 2.3 252.759 2.9L250.959 6.8C250.199 6.36 249.259 5.96 248.139 5.6C247.019 5.2 245.859 5 244.659 5C243.819 5 243.019 5.16 242.259 5.48C241.499 5.8 240.819 6.3 240.219 6.98C239.659 7.62 239.199 8.48 238.839 9.56C238.519 10.64 238.359 11.92 238.359 13.4V14H247.659V18.2H238.359V44H229.959V18.2H224.259V14H229.959V13.4ZM270.454 41C272.414 41 274.234 40.66 275.914 39.98C277.634 39.3 279.314 38.34 280.954 37.1L283.354 40.7C282.594 41.38 281.694 42 280.654 42.56C279.654 43.12 278.554 43.6 277.354 44C276.194 44.36 274.974 44.64 273.694 44.84C272.414 45.08 271.134 45.2 269.854 45.2C267.014 45.2 264.414 44.82 262.054 44.06C259.734 43.34 257.754 42.28 256.114 40.88C254.474 39.44 253.194 37.68 252.274 35.6C251.394 33.52 250.954 31.12 250.954 28.4C250.954 25.72 251.374 23.34 252.214 21.26C253.094 19.14 254.294 17.38 255.814 15.98C257.374 14.54 259.214 13.46 261.334 12.74C263.454 11.98 265.794 11.6 268.354 11.6C270.754 11.6 273.014 11.96 275.134 12.68C277.254 13.4 279.094 14.46 280.654 15.86C282.214 17.22 283.454 18.88 284.374 20.84C285.294 22.8 285.754 25.02 285.754 27.5V31.7H260.134C260.614 35.02 261.754 37.4 263.554 38.84C265.394 40.28 267.694 41 270.454 41ZM268.354 15.5C267.194 15.5 266.114 15.72 265.114 16.16C264.114 16.6 263.234 17.3 262.474 18.26C261.754 19.22 261.154 20.46 260.674 21.98C260.234 23.5 259.994 25.34 259.954 27.5H276.754C276.754 25.42 276.514 23.62 276.034 22.1C275.554 20.58 274.914 19.34 274.114 18.38C273.354 17.38 272.454 16.66 271.414 16.22C270.414 15.74 269.394 15.5 268.354 15.5ZM310.649 41C312.609 41 314.429 40.66 316.109 39.98C317.829 39.3 319.509 38.34 321.149 37.1L323.549 40.7C322.789 41.38 321.889 42 320.849 42.56C319.849 43.12 318.749 43.6 317.549 44C316.389 44.36 315.169 44.64 313.889 44.84C312.609 45.08 311.329 45.2 310.049 45.2C307.209 45.2 304.609 44.82 302.249 44.06C299.929 43.34 297.949 42.28 296.309 40.88C294.669 39.44 293.389 37.68 292.469 35.6C291.589 33.52 291.149 31.12 291.149 28.4C291.149 25.72 291.569 23.34 292.409 21.26C293.289 19.14 294.489 17.38 296.009 15.98C297.569 14.54 299.409 13.46 301.529 12.74C303.649 11.98 305.989 11.6 308.549 11.6C310.949 11.6 313.209 11.96 315.329 12.68C317.449 13.4 319.289 14.46 320.849 15.86C322.409 17.22 323.649 18.88 324.569 20.84C325.489 22.8 325.949 25.02 325.949 27.5V31.7H300.329C300.809 35.02 301.949 37.4 303.749 38.84C305.589 40.28 307.889 41 310.649 41ZM308.549 15.5C307.389 15.5 306.309 15.72 305.309 16.16C304.309 16.6 303.429 17.3 302.669 18.26C301.949 19.22 301.349 20.46 300.869 21.98C300.429 23.5 300.189 25.34 300.149 27.5H316.949C316.949 25.42 316.709 23.62 316.229 22.1C315.749 20.58 315.109 19.34 314.309 18.38C313.549 17.38 312.649 16.66 311.609 16.22C310.609 15.74 309.589 15.5 308.549 15.5ZM140.177 84.7L156.077 106H146.177L132.377 87.4H121.877V106H113.177V64H121.877V82.9H131.777L145.577 64H155.177L140.177 84.7ZM160.872 74.8H169.272V93.7C169.272 96.58 169.992 98.66 171.432 99.94C172.872 101.18 174.952 101.8 177.672 101.8H185.472V74.8H193.872V106H177.672C171.952 106 167.712 104.98 164.952 102.94C162.232 100.86 160.872 97.78 160.872 93.7V74.8ZM210.698 106H202.298V64H210.698V106ZM221.814 79H216.114V74.8H221.814V65.2H230.214V74.8H239.514V79H230.214V94.6C230.214 96.12 230.374 97.42 230.694 98.5C231.054 99.54 231.514 100.4 232.074 101.08C232.674 101.72 233.354 102.2 234.114 102.52C234.874 102.84 235.674 103 236.514 103C237.714 103 238.874 102.82 239.994 102.46C241.114 102.06 242.054 101.64 242.814 101.2L244.614 105.1C243.414 105.7 242.034 106.2 240.474 106.6C238.954 107 237.434 107.2 235.914 107.2C231.394 107.2 227.914 106.08 225.474 103.84C223.034 101.6 221.814 98.52 221.814 94.6V79ZM247.591 74.8H255.991V93.7C255.991 96.58 256.711 98.66 258.151 99.94C259.591 101.18 261.671 101.8 264.391 101.8H272.191V74.8H280.591V106H264.391C258.671 106 254.431 104.98 251.671 102.94C248.951 100.86 247.591 97.78 247.591 93.7V74.8ZM312.716 79H305.516C302.796 79 300.716 79.74 299.276 81.22C297.836 82.66 297.116 84.82 297.116 87.7V106H288.716V87.7C288.716 83.62 289.996 80.46 292.556 78.22C295.156 75.94 298.876 74.8 303.716 74.8H312.716V79ZM322.577 96.1C322.577 99.9 324.877 101.8 329.477 101.8H337.877V90.4H329.477C324.877 90.4 322.577 92.3 322.577 96.1ZM337.877 86.2C337.877 83.32 337.117 81.2 335.597 79.84C334.117 78.48 332.177 77.8 329.777 77.8C327.977 77.8 326.217 78.08 324.497 78.64C322.777 79.16 321.237 79.88 319.877 80.8L317.777 77.2C318.657 76.6 319.617 76.08 320.657 75.64C321.737 75.2 322.837 74.84 323.957 74.56C325.077 74.24 326.177 74 327.257 73.84C328.377 73.68 329.417 73.6 330.377 73.6C332.937 73.6 335.197 73.9 337.157 74.5C339.117 75.1 340.777 75.96 342.137 77.08C343.497 78.2 344.517 79.54 345.197 81.1C345.917 82.62 346.277 84.32 346.277 86.2V106H329.477C324.037 106 320.017 105.18 317.417 103.54C314.857 101.9 313.577 99.42 313.577 96.1C313.577 92.78 314.857 90.3 317.417 88.66C320.017 87.02 324.037 86.2 329.477 86.2H337.877Z" fill="#585858"/>
<path d="M19.5 43.5L13.5 25H35L48 9L60.5 25H81.5L74.5 45.5L88 61.5L69.5 70L65.5 89.5L47 79.5L28.5 88.5L23 68.5L5 60L19.5 43.5Z" stroke="#585858" stroke-width="5"/>
<circle cx="47.5" cy="50.5" r="13.5" fill="#585858"/>
</svg>
